<svg width="25" height="25" viewBox="0 0 25 25" fill="none" xmlns="http://www.w3.org/2000/svg">
<path d="M10.2612 11.4819C10.4736 11.3281 10.5762 11.0742 10.5762 10.7251C10.5835 10.5591 10.5493 10.3955 10.4761 10.2466C10.4102 10.127 10.3125 10.0269 10.1929 9.95605C10.0688 9.88083 9.93107 9.83104 9.7876 9.80957C9.63135 9.78027 9.47266 9.76563 9.31641 9.76807H7.6001V11.7139H9.45801C9.77783 11.7163 10.0488 11.6382 10.2612 11.4819V11.4819ZM10.5493 13.2397C10.3101 13.0566 9.99023 12.9663 9.59229 12.9663H7.59521V15.2612H9.55322C9.73633 15.2612 9.90479 15.2441 10.0684 15.21C10.2231 15.1797 10.3706 15.12 10.5029 15.0342C10.6274 14.9536 10.7275 14.8438 10.8032 14.7021C10.8765 14.5605 10.9131 14.3799 10.9131 14.1626C10.9131 13.7305 10.791 13.4253 10.5493 13.2397V13.2397ZM12.5 1.5625C6.45996 1.5625 1.5625 6.45996 1.5625 12.5C1.5625 18.54 6.45996 23.4375 12.5 23.4375C18.54 23.4375 23.4375 18.54 23.4375 12.5C23.4375 6.45996 18.54 1.5625 12.5 1.5625ZM14.6118 8.56689H17.9907V9.38965H14.6118V8.56689ZM12.5 15.3516C12.342 15.6516 12.1163 15.9107 11.8408 16.1084C11.5527 16.3086 11.2329 16.4551 10.8936 16.5405C10.5385 16.6357 10.1722 16.6825 9.80469 16.6797H5.76172V8.35205H9.69238C10.0903 8.35205 10.4517 8.38867 10.7813 8.45703C11.1084 8.52539 11.3867 8.64258 11.6211 8.80127C11.853 8.95996 12.0361 9.17236 12.1655 9.43604C12.2925 9.69727 12.3584 10.0244 12.3584 10.4126C12.3584 10.8325 12.2632 11.1792 12.0728 11.46C11.8799 11.7407 11.6016 11.9678 11.2231 12.146C11.7383 12.2925 12.1167 12.5537 12.3657 12.9199C12.6196 13.291 12.7441 13.7354 12.7441 14.2578C12.7441 14.6826 12.6636 15.0464 12.5 15.3516ZM19.3066 14.0625H14.9512C14.9512 14.5361 15.1147 14.9902 15.3613 15.2344C15.6104 15.4761 15.9668 15.5981 16.4331 15.5981C16.77 15.5981 17.0557 15.5127 17.2998 15.3442C17.5415 15.1758 17.688 14.9976 17.7417 14.812H19.2017C18.9673 15.5371 18.6108 16.0547 18.1274 16.3672C17.6489 16.6797 17.063 16.8359 16.3818 16.8359C15.9058 16.8359 15.4785 16.7578 15.0952 16.6089C14.7266 16.4648 14.3945 16.2451 14.1211 15.9619C13.8515 15.6711 13.6431 15.329 13.5083 14.9561C13.3594 14.5435 13.2861 14.1089 13.291 13.6719C13.291 13.2202 13.3667 12.8003 13.5132 12.4097C13.7939 11.6504 14.3774 11.0425 15.1221 10.7275C15.52 10.5615 15.9473 10.4785 16.3794 10.4834C16.8921 10.4834 17.3364 10.5811 17.7222 10.7813C18.0935 10.9724 18.416 11.2464 18.6646 11.582C18.9111 11.9165 19.0845 12.2974 19.1943 12.7271C19.2993 13.1494 19.3359 13.5937 19.3066 14.0625V14.0625ZM16.3281 11.7285C16.0645 11.7285 15.8423 11.7749 15.6714 11.8652C15.5005 11.9556 15.3589 12.0679 15.2515 12.1973C15.1492 12.3222 15.0735 12.4668 15.0293 12.6221C14.9902 12.7515 14.9634 12.8833 14.9536 13.0176H17.6514C17.6123 12.5952 17.4658 12.2827 17.2705 12.063C17.0654 11.8457 16.7358 11.7285 16.3281 11.7285V11.7285Z" fill="black"/>
</svg>
