<svg width="25" height="25" viewBox="0 0 25 25" fill="none" xmlns="http://www.w3.org/2000/svg">
<path d="M12.5 1.625C6.49383 1.625 1.625 6.49383 1.625 12.5C1.625 18.5062 6.49383 23.375 12.5 23.375C18.5062 23.375 23.375 18.5062 23.375 12.5C23.375 6.49383 18.5062 1.625 12.5 1.625ZM9.83789 17.0075H7.6357V9.92059H9.83789V17.0075ZM8.7232 9.05059C8.02766 9.05059 7.57793 8.55781 7.57793 7.94836C7.57793 7.32645 8.04125 6.8484 8.75152 6.8484C9.4618 6.8484 9.8968 7.32645 9.91039 7.94836C9.91039 8.55781 9.4618 9.05059 8.7232 9.05059ZM17.8809 17.0075H15.6787V13.08C15.6787 12.1658 15.3592 11.545 14.5629 11.545C13.9545 11.545 13.5932 11.9653 13.4334 12.3697C13.3745 12.5136 13.3598 12.7175 13.3598 12.9203V17.0063H11.1565V12.1805C11.1565 11.2958 11.1282 10.5561 11.0987 9.91945H13.012L13.1129 10.9039H13.157C13.447 10.4417 14.1573 9.75973 15.3456 9.75973C16.7945 9.75973 17.8809 10.7305 17.8809 12.8172V17.0075V17.0075Z" fill="black"/>
</svg>
