<svg width="25" height="25" viewBox="0 0 25 25" fill="none" xmlns="http://www.w3.org/2000/svg">
<path d="M20.8333 4.16667H4.16659C3.02075 4.16667 2.08325 5.10417 2.08325 6.25V18.75C2.08325 19.8958 3.02075 20.8333 4.16659 20.8333H20.8333C21.9791 20.8333 22.9166 19.8958 22.9166 18.75V6.25C22.9166 5.10417 21.9791 4.16667 20.8333 4.16667ZM20.4166 8.59375L13.6041 12.8542C12.927 13.2812 12.0728 13.2812 11.3958 12.8542L4.58325 8.59375C4.4788 8.53512 4.38733 8.4559 4.31439 8.36089C4.24144 8.26588 4.18853 8.15706 4.15885 8.04101C4.12918 7.92496 4.12336 7.8041 4.14175 7.68574C4.16014 7.56737 4.20235 7.45397 4.26584 7.3524C4.32932 7.25082 4.41276 7.16318 4.51109 7.09479C4.60943 7.02639 4.72062 6.97866 4.83793 6.95448C4.95525 6.9303 5.07626 6.93017 5.19362 6.95411C5.31099 6.97805 5.42228 7.02556 5.52075 7.09375L12.4999 11.4583L19.4791 7.09375C19.5776 7.02556 19.6889 6.97805 19.8062 6.95411C19.9236 6.93017 20.0446 6.9303 20.1619 6.95448C20.2792 6.97866 20.3904 7.02639 20.4887 7.09479C20.5871 7.16318 20.6705 7.25082 20.734 7.3524C20.7975 7.45397 20.8397 7.56737 20.8581 7.68574C20.8765 7.8041 20.8707 7.92496 20.841 8.04101C20.8113 8.15706 20.7584 8.26588 20.6855 8.36089C20.6125 8.4559 20.521 8.53512 20.4166 8.59375V8.59375Z" fill="black"/>
</svg>
